#!OML:ASF \\sashay\E\Suitcase\Project 1\Capture day 1\Session 1\Male1.ASF
:FULLY-SPECIFIED
:DEGREES
1044
root -1.29863 17.4808 10.3316 4.89915 7.93998 -1.6758
lowerback 2.38102 -3.13449 3.6062
upperback 2.21239 -4.13138 2.98939
thorax 0.907922 -2.03907 1.1186
lowerneck -8.97973 -5.27551 -9.65857
upperneck 21.4209 -6.12775 2.36142
head 8.54166 -3.43159 1.77226
rclavicle 5.00937e-014 -2.46493e-014
rhumerus -52.0604 -29.39 -51.2758
rradius 14.2114
rwrist -0.460565
rhand -10.0993 14.7947
rfingers 7.12502
rthumb 15.888 -14.5735
lclavicle 5.00937e-014 -2.46493e-014
lhumerus -38.9276 -3.34914 87.747
lradius 39.2931
lwrist -1.78936
lhand 1.25491 44.272
lfingers 7.12502
lthumb 26.7918 72.3944
rfemur -1.72582 -2.82052 23.7078
rtibia 12.5239
rfoot -15.0678 -21.8753
rtoes 18.762
lfemur -7.1293 -5.41831 -9.62375
ltibia 17.455
lfoot -14.9572 -0.733574
ltoes -1.3729
1045
root -1.30375 17.4841 10.339 5.06061 7.9639 -1.34648
lowerback 2.27738 -3.24991 3.29195
upperback 2.35809 -4.30232 2.92519
thorax 1.13226 -2.1254 1.21784
lowerneck -9.48539 -5.22322 -10.1844
upperneck 21.3622 -5.9863 2.73422
head 8.63598 -3.36466 1.987
rclavicle 1.27222e-014 -2.78299e-014
rhumerus -51.7071 -29.1216 -51.7557
rradius 14.1507
rwrist -0.733472
rhand -10.0439 14.4909
rfingers 7.12502
rthumb 15.9414 -14.8731
lclavicle 1.27222e-014 -2.78299e-014
lhumerus -38.5979 -3.10487 87.602
lradius 39.3153
lwrist -1.95546
lhand 1.81542 44.6051
lfingers 7.12502
lthumb 27.3281 72.6442
rfemur -1.89787 -3.02749 23.3612
rtibia 12.623
rfoot -14.8224 -21.8241
rtoes 17.5135
lfemur -7.20155 -5.53193 -9.96544
ltibia 17.3796
lfoot -15.0924 -0.918716
ltoes -1.13323
1046
root -1.30893 17.485 10.3622 5.02165 7.84054 -1.43655
lowerback 2.10713 -3.13644 3.47041
upperback 2.50414 -4.16541 2.94835
thorax 1.36767 -2.05099 1.12569
lowerneck -9.40425 -5.29644 -10.3853
upperneck 21.0967 -6.09706 2.92214
head 8.5516 -3.41008 2.07298
rclavicle -4.37326e-015 0
rhumerus -51.9344 -29.1836 -51.5405
rradius 14.1135
rwrist -0.811943
rhand -10.0434 14.5031
rfingers 7.12502
rthumb 15.9418 -14.8608
lclavicle -4.37326e-015 0
lhumerus -38.5163 -3.60124 87.8038
lradius 39.5273
lwrist -1.53259
lhand 1.71608 44.2571
lfingers 7.12502
lthumb 27.233 72.3112
rfemur -1.70537 -3.11399 23.4405
rtibia 12.4871
rfoot -14.635 -21.6064
rtoes 16.5684
lfemur -7.1177 -5.54664 -9.87048
ltibia 17.5156
lfoot -14.8757 -0.454758
ltoes -0.107836
1047
root -1.33168 17.4748 10.3603 4.98749 7.74982 -1.64347
lowerback 2.42269 -3.24224 3.44929
upperback 2.49564 -4.28846 3.05911
thorax 1.19215 -2.11595 1.27219
lowerneck -9.27009 -5.12123 -9.80466
upperneck 20.8019 -5.90275 2.60728
head 8.38133 -3.30075 1.89892
rclavicle -5.76476e-015 -3.26007e-014
rhumerus -52.099 -28.8098 -51.7189
rradius 14.216
rwrist -1.34996
rhand -9.7552 15.2171
rfingers 7.12502
rthumb 16.2194 -14.1244
lclavicle -5.76476e-015 -3.26007e-014
lhumerus -38.5633 -3.14712 87.5883
lradius 39.8476
lwrist -1.80706
lhand 0.613612 43.6005
lfingers 7.12502
lthumb 26.178 71.8155
rfemur -1.61248 -2.56153 23.829
rtibia 12.3105
rfoot -14.6392 -22.0116
rtoes 16.3557
lfemur -7.20382 -5.60336 -9.54035
ltibia 17.6501
lfoot -15.0019 -0.380868
ltoes -1.43892
1048
root -1.33924 17.475 10.3767 4.99837 7.81519 -2.15843
lowerback 2.41344 -3.27542 4.08277
upperback 2.39629 -4.31886 3.18552
thorax 1.05982 -2.12431 1.05608
lowerneck -8.97586 -5.07255 -9.87118
upperneck 20.6284 -5.87158 2.69163
head 8.27163 -3.28342 1.94888
rclavicle -2.98177e-015 -2.14687e-014
rhumerus -52.5817 -28.4919 -51.6367
rradius 14.3616
rwrist -1.23922
rhand -9.99629 14.1143
rfingers 7.12502
rthumb 15.9872 -15.246
lclavicle -2.98177e-015 -2.14687e-014
lhumerus -38.7482 -3.39549 87.685
lradius 39.9516
lwrist -1.73061
lhand 0.52793 44.0951
lfingers 7.12502
lthumb 26.0959 72.3222
rfemur -1.53053 -2.56266 24.4432
rtibia 12.0723
rfoot -14.5757 -22.1419
rtoes 16.9733
lfemur -7.30886 -5.49477 -8.90234
ltibia 17.7986
lfoot -15.1988 -0.6141
ltoes 0.130645
1049
root -1.33369 17.4742 10.3766 5.07429 7.97214 -1.90875
lowerback 2.57526 -3.37201 4.06094
upperback 2.3148 -4.43185 3.07912
thorax 0.877184 -2.18304 0.974895
lowerneck -8.97215 -5.02936 -9.82369
upperneck 20.5451 -5.82585 2.71965
head 8.23842 -3.25446 1.95592
rclavicle 9.38264e-014 -3.26007e-014
rhumerus -52.8927 -28.3123 -51.5773
rradius 14.437
rwrist -1.45689
rhand -10.0354 14.3637
rfingers 7.12502
rthumb 15.9496 -14.9996
lclavicle 9.38264e-014 -3.26007e-014
lhumerus -38.8016 -3.75818 87.7818
lradius 39.7747
lwrist -1.42636
lhand 0.250905 43.9593
lfingers 7.12502
lthumb 25.8307 72.2253
rfemur -1.49568 -3.04112 24.1217
rtibia 11.9258
rfoot -14.9285 -21.873
rtoes 18.1887
lfemur -7.39951 -5.63348 -9.20648
ltibia 17.8476
lfoot -15.4321 -0.766375
ltoes -2.04616
1050
root -1.34846 17.4782 10.382 5.13951 7.8355 -1.98993
lowerback 2.68894 -3.39205 4.10483
upperback 2.32167 -4.4505 3.10188
thorax 0.819187 -2.19266 0.981633
lowerneck -9.04876 -4.94275 -9.10886
upperneck 20.3683 -5.74099 2.33886
head 8.14999 -3.19271 1.72104
rclavicle 6.57977e-014 -2.38542e-014
rhumerus -53.0589 -28.4337 -51.3586
rradius 14.3274
rwrist -1.39638
rhand -10.0996 14.8884
rfingers 7.12502
rthumb 15.8878 -14.4798
lclavicle 6.57977e-014 -2.38542e-014
lhumerus -38.7977 -3.97452 87.798
lradius 39.8321
lwrist -1.14983
lhand -0.0771406 43.8191
lfingers 7.12502
lthumb 25.5165 72.1305
rfemur -1.56662 -2.71953 24.2996
rtibia 11.9307
rfoot -14.4653 -22.0727
rtoes 16.8274
lfemur -7.40009 -5.71913 -9.06813
ltibia 17.7312
lfoot -15.2832 -0.452757
ltoes -0.0832709
1051
root -1.36552 17.4832 10.3942 5.25937 7.56942 -1.69608
lowerback 2.74368 -3.39094 3.64691
upperback 2.2766 -4.45282 3.02523
thorax 0.769556 -2.2006 1.16047
lowerneck -9.18244 -4.85188 -9.17351
upperneck 20.362 -5.61407 2.44678
head 8.16903 -3.12662 1.77814
rclavicle 5.98342e-014 -3.89618e-014
rhumerus -53.2585 -28.2878 -51.2454
rradius 14.3883
rwrist -1.01435
rhand -9.74129 14.0141
rfingers 7.12502
rthumb 16.2328 -15.3263
lclavicle 5.98342e-014 -3.89618e-014
lhumerus -38.9481 -3.71907 87.6785
lradius 40.1627
lwrist -1.40335
lhand 0.324248 43.582
lfingers 7.12502
lthumb 25.9009 71.8378
rfemur -1.83048 -2.21831 24.0325
rtibia 12.1531
rfoot -14.5589 -22.393
rtoes 16.2635
lfemur -7.25926 -5.61918 -9.35268
ltibia 17.5096
lfoot -15.2878 -0.352851
ltoes -1.9377
1052
root -1.38888 17.4865 10.4044 5.32215 7.33185 -1.74397
lowerback 2.67905 -3.32019 3.47551
upperback 2.34401 -4.36995 3.1117
thorax 0.894867 -2.16074 1.33476
lowerneck -9.31965 -4.84976 -9.50791
upperneck 20.2472 -5.58328 2.66994
head 8.1712 -3.11308 1.90746
rclavicle -5.30755e-014 2.94201e-014
rhumerus -53.064 -27.8623 -51.636
rradius 14.4296
rwrist -1.81408
rhand -9.78942 13.7107
rfingers 7.12502
rthumb 16.1864 -15.6335
lclavicle -5.30755e-014 2.94201e-014
lhumerus -38.9147 -3.8401 87.7829
lradius 40.5477
lwrist -1.27881
lhand 0.0795507 43.9743
lfingers 7.12502
lthumb 25.6666 72.264
rfemur -1.92675 -1.51847 24.2092
rtibia 12.2327
rfoot -14.7861 -22.7365
rtoes 17.2027
lfemur -7.24687 -5.46249 -9.21819
ltibia 17.4278
lfoot -15.0603 -0.173061
ltoes -0.0692069
